<svg width="74" height="67" viewBox="0 0 74 67" fill="none" xmlns="http://www.w3.org/2000/svg">
<path d="M66.8662 33.4999C66.8662 46.6721 55.0724 57.3503 40.5239 57.3503C25.9755 57.3503 14.1816 46.6721 14.1816 33.4999C14.1816 20.3276 25.9755 9.64941 40.5239 9.64941C55.0724 9.64941 66.8662 20.3276 66.8662 33.4999ZM26.7903 33.4999C26.7903 40.3672 32.9391 45.9343 40.5239 45.9343C48.1088 45.9343 54.2575 40.3672 54.2575 33.4999C54.2575 26.6325 48.1088 21.0654 40.5239 21.0654C32.9391 21.0654 26.7903 26.6325 26.7903 33.4999Z" fill="#0EFA5E"/>
<path d="M59.1507 16.635C63.375 20.4597 66.0379 25.4708 66.7026 30.846C67.3674 36.2213 65.9944 41.6415 62.809 46.2173C59.6235 50.7931 54.8149 54.2527 49.172 56.0284C43.5292 57.8041 37.3873 57.7905 31.7541 55.9898L35.9518 45.225C38.8886 46.1638 42.0907 46.1709 45.0326 45.2451C47.9745 44.3194 50.4815 42.5157 52.1422 40.1301C53.803 37.7445 54.5188 34.9187 54.1722 32.1163C53.8257 29.3139 52.4373 26.7014 50.235 24.7074L59.1507 16.635Z" fill="#FA0EB8"/>
<path d="M40.0685 9.8118C44.6157 10.2947 48.9454 11.8422 52.6307 14.3019C56.3159 16.7616 59.2295 20.0484 61.0842 23.8383C62.9388 27.6282 63.6704 31.7904 63.207 35.9144C62.7435 40.0383 61.1009 43.9817 58.4411 47.3557L48.1783 40.7236C49.565 38.9646 50.4214 36.9087 50.663 34.7587C50.9047 32.6086 50.5232 30.4387 49.5563 28.4628C48.5894 26.4869 47.0704 24.7733 45.1491 23.491C43.2277 22.2086 40.9705 21.4018 38.5998 21.1501L40.0685 9.8118Z" fill="#DFFF17"/>
</svg>
